<?xml version="1.0" encoding="UTF-8"?>
<svg xmlns="http://www.w3.org/2000/svg" version="1.1" xmlns:xlink="http://www.w3.org/1999/xlink" viewBox="0 0 647 647">
  <defs>
    <style>
      .cls-1 {
        fill: url(#Viola_arancione);
      }

      .cls-2 {
        fill: #fff;
      }

      .cls-3 {
        fill: #5e1a7e;
      }
    </style>
    <linearGradient id="Viola_arancione" data-name="Viola, arancione" x1="-605.4" y1="621.2" x2="2722.4" y2="-445.4" gradientUnits="userSpaceOnUse">
      <stop offset="0" stop-color="#7f47dd"/>
      <stop offset=".5" stop-color="#fbae17"/>
      <stop offset="1" stop-color="#fbae17"/>
    </linearGradient>
  </defs>
  <!-- Generator: Adobe Illustrator 28.6.0, SVG Export Plug-In . SVG Version: 1.2.0 Build 709)  -->
  <g>
    <g id="Livello_1">
      <rect class="cls-1" width="647" height="647"/>
      <g>
        <path class="cls-2" d="M273.3,186.7l-9,3.3c-4,1.6-7,3.6-9,6.1-2.1,2.5-3.1,5.7-3.1,9.6v228.1c0,6.7,1.6,11.3,4.8,13.9,3.2,2.6,7.7,3.9,13.5,3.9h18.3c8.4,0,15.7-1.2,22-3.6,6.3-2.4,12.2-6.8,17.7-13.2,5.5-6.4,11.2-15.8,17.1-28.2l15.9-33.3c2.7-5.5,6.1-9.2,10.2-11,4.1-1.8,8.8-1.9,14-.4,5.4,1.6,9.2,4.2,11.4,7.8,2.2,3.6,2.5,8.6.7,14.7l-23.8,83.9c-2.5,8.7-5.7,15.2-9.5,19.4-3.8,4.2-9.5,6.3-17.1,6.3s-8.2-.7-12.4-2.1c-4.1-1.4-8.8-2.9-13.9-4.3-5.1-1.4-11.4-2.1-18.6-2.1h-173.7c-7,0-12.1-1.5-15.4-4.4-3.3-2.9-5-6.8-5-11.8,0-8.6,4.1-14.4,12.4-17.6l9-3.3c4.1-1.6,7.2-3.6,9.1-6.1,2-2.5,3-5.7,3-9.6v-227.1c0-4-1-7.2-3-9.6-2-2.5-5-4.5-9.1-6.1l-9-3.3c-8.2-3.2-12.4-9-12.4-17.6s1.7-9,5-11.9c3.3-2.9,8.5-4.3,15.4-4.3h136.4c7,0,12.1,1.4,15.4,4.3,3.3,2.9,5,6.8,5,11.9,0,8.6-4.1,14.4-12.4,17.6Z"/>
        <path class="cls-3" d="M481.8,492.7c-10.5,0-20-2.7-28.5-8s-15.3-12.4-20.3-21.3c-5-8.9-7.5-18.4-7.5-28.7s2.5-20.2,7.5-28.9c5-8.6,11.8-15.6,20.3-20.8,8.6-5.2,18.1-7.8,28.5-7.8s20.4,2.6,29,7.8c8.6,5.2,15.3,12.2,20.3,20.8,5,8.6,7.5,18.3,7.5,28.9s-2.5,19.9-7.5,28.7c-5,8.9-11.8,16-20.3,21.3s-18.2,8-29,8Z"/>
      </g>
    </g>
  </g>
</svg>